<svg id="visual" viewBox="0 0 900 20" width="900" height="20" xmlns="http://www.w3.org/2000/svg" xmlns:xlink="http://www.w3.org/1999/xlink" version="1.1"><path d="M0 4L82 7L164 5L245 6L327 6L409 5L491 6L573 5L655 3L736 6L818 5L900 4L900 0L818 0L736 0L655 0L573 0L491 0L409 0L327 0L245 0L164 0L82 0L0 0Z" fill="#ffffff"></path><path d="M0 8L82 13L164 9L245 13L327 9L409 10L491 13L573 11L655 12L736 11L818 12L900 10L900 2L818 3L736 4L655 1L573 3L491 4L409 3L327 4L245 4L164 3L82 5L0 2Z" fill="#f2f2f2"></path><path d="M0 16L82 18L164 17L245 18L327 16L409 15L491 15L573 17L655 16L736 16L818 15L900 15L900 8L818 10L736 9L655 10L573 9L491 11L409 8L327 7L245 11L164 7L82 11L0 6Z" fill="#e5e5e5"></path><path d="M0 18L82 19L164 19L245 19L327 17L409 17L491 18L573 18L655 19L736 18L818 18L900 18L900 13L818 13L736 14L655 14L573 15L491 13L409 13L327 14L245 16L164 15L82 16L0 14Z" fill="#d8d8d8"></path><path d="M0 21L82 21L164 21L245 21L327 21L409 21L491 21L573 21L655 21L736 21L818 21L900 21L900 16L818 16L736 16L655 17L573 16L491 16L409 15L327 15L245 17L164 17L82 17L0 16Z" fill="#cccccc"></path></svg>