<svg id="visual" viewBox="0 0 900 20" width="900" height="20" xmlns="http://www.w3.org/2000/svg" xmlns:xlink="http://www.w3.org/1999/xlink" version="1.1"><path d="M0 3L82 4L164 4L245 4L327 4L409 3L491 2L573 3L655 3L736 2L818 3L900 2L900 0L818 0L736 0L655 0L573 0L491 0L409 0L327 0L245 0L164 0L82 0L0 0Z" fill="#ffffff"></path><path d="M0 8L82 10L164 12L245 8L327 7L409 8L491 12L573 7L655 9L736 12L818 10L900 11L900 0L818 1L736 0L655 1L573 1L491 0L409 1L327 2L245 2L164 2L82 2L0 1Z" fill="#f2f2f2"></path><path d="M0 14L82 13L164 16L245 15L327 13L409 14L491 16L573 14L655 17L736 16L818 13L900 15L900 9L818 8L736 10L655 7L573 5L491 10L409 6L327 5L245 6L164 10L82 8L0 6Z" fill="#e5e5e5"></path><path d="M0 18L82 16L164 19L245 18L327 16L409 18L491 18L573 16L655 19L736 19L818 17L900 19L900 13L818 11L736 14L655 15L573 12L491 14L409 12L327 11L245 13L164 14L82 11L0 12Z" fill="#d8d8d8"></path><path d="M0 21L82 21L164 21L245 21L327 21L409 21L491 21L573 21L655 21L736 21L818 21L900 21L900 17L818 15L736 17L655 17L573 14L491 16L409 16L327 14L245 16L164 17L82 14L0 16Z" fill="#cccccc"></path></svg>