<svg id="visual" viewBox="0 0 900 20" width="900" height="20" xmlns="http://www.w3.org/2000/svg" xmlns:xlink="http://www.w3.org/1999/xlink" version="1.1"><path d="M0 4L82 4L164 5L245 3L327 4L409 4L491 3L573 6L655 3L736 3L818 4L900 5L900 0L818 0L736 0L655 0L573 0L491 0L409 0L327 0L245 0L164 0L82 0L0 0Z" fill="#ffffff"></path><path d="M0 12L82 9L164 8L245 9L327 7L409 9L491 10L573 11L655 10L736 9L818 12L900 8L900 3L818 2L736 1L655 1L573 4L491 1L409 2L327 2L245 1L164 3L82 2L0 2Z" fill="#f2f2f2"></path><path d="M0 16L82 16L164 15L245 15L327 14L409 15L491 14L573 15L655 17L736 15L818 14L900 17L900 6L818 10L736 7L655 8L573 9L491 8L409 7L327 5L245 7L164 6L82 7L0 10Z" fill="#e5e5e5"></path><path d="M0 18L82 19L164 18L245 17L327 18L409 17L491 17L573 18L655 19L736 17L818 18L900 18L900 15L818 12L736 13L655 15L573 13L491 12L409 13L327 12L245 13L164 13L82 14L0 14Z" fill="#d8d8d8"></path><path d="M0 21L82 21L164 21L245 21L327 21L409 21L491 21L573 21L655 21L736 21L818 21L900 21L900 16L818 16L736 15L655 17L573 16L491 15L409 15L327 16L245 15L164 16L82 17L0 16Z" fill="#cccccc"></path></svg>