<svg id="visual" viewBox="0 0 900 200" width="900" height="200" xmlns="http://www.w3.org/2000/svg" xmlns:xlink="http://www.w3.org/1999/xlink" version="1.1"><path d="M0 17L82 13L164 31L245 33L327 25L409 17L491 13L573 27L655 23L736 29L818 35L900 19L900 0L818 0L736 0L655 0L573 0L491 0L409 0L327 0L245 0L164 0L82 0L0 0Z" fill="#f3f3f3"></path><path d="M0 67L82 71L164 97L245 93L327 103L409 99L491 55L573 89L655 55L736 61L818 105L900 89L900 17L818 33L736 27L655 21L573 25L491 11L409 15L327 23L245 31L164 29L82 11L0 15Z" fill="#efefef"></path><path d="M0 127L82 149L164 131L245 121L327 137L409 129L491 133L573 125L655 121L736 129L818 153L900 147L900 87L818 103L736 59L655 53L573 87L491 53L409 97L327 101L245 91L164 95L82 69L0 65Z" fill="#ececec"></path><path d="M0 149L82 167L164 163L245 159L327 165L409 145L491 149L573 161L655 153L736 155L818 175L900 169L900 145L818 151L736 127L655 119L573 123L491 131L409 127L327 135L245 119L164 129L82 147L0 125Z" fill="#e8e8e8"></path><path d="M0 201L82 201L164 201L245 201L327 201L409 201L491 201L573 201L655 201L736 201L818 201L900 201L900 167L818 173L736 153L655 151L573 159L491 147L409 143L327 163L245 157L164 161L82 165L0 147Z" fill="#e5e5e5"></path></svg>