<svg id="visual" viewBox="0 0 900 200" width="900" height="200" xmlns="http://www.w3.org/2000/svg" xmlns:xlink="http://www.w3.org/1999/xlink" version="1.1"><path d="M0 23L82 35L164 29L245 29L327 27L409 19L491 13L573 17L655 19L736 15L818 17L900 13L900 0L818 0L736 0L655 0L573 0L491 0L409 0L327 0L245 0L164 0L82 0L0 0Z" fill="#f3f3f3"></path><path d="M0 73L82 87L164 115L245 67L327 61L409 75L491 107L573 59L655 81L736 113L818 91L900 103L900 11L818 15L736 13L655 17L573 15L491 11L409 17L327 25L245 27L164 27L82 33L0 21Z" fill="#e9e9e9"></path><path d="M0 129L82 121L164 153L245 137L327 117L409 131L491 151L573 133L655 157L736 147L818 123L900 143L900 101L818 89L736 111L655 79L573 57L491 105L409 73L327 59L245 65L164 113L82 85L0 71Z" fill="#dfdfdf"></path><path d="M0 167L82 153L164 185L245 167L327 153L409 173L491 171L573 149L655 179L736 179L818 159L900 179L900 141L818 121L736 145L655 155L573 131L491 149L409 129L327 115L245 135L164 151L82 119L0 127Z" fill="#d5d5d5"></path><path d="M0 201L82 201L164 201L245 201L327 201L409 201L491 201L573 201L655 201L736 201L818 201L900 201L900 177L818 157L736 177L655 177L573 147L491 169L409 171L327 151L245 165L164 183L82 151L0 165Z" fill="#cccccc"></path></svg>