<svg id="visual" viewBox="0 0 900 20" width="900" height="20" xmlns="http://www.w3.org/2000/svg" xmlns:xlink="http://www.w3.org/1999/xlink" version="1.1"><path d="M0 3L82 2L164 4L245 4L327 3L409 3L491 2L573 4L655 3L736 4L818 4L900 3L900 0L818 0L736 0L655 0L573 0L491 0L409 0L327 0L245 0L164 0L82 0L0 0Z" fill="#f3f3f3"></path><path d="M0 8L82 8L164 11L245 10L327 11L409 11L491 6L573 10L655 6L736 7L818 11L900 10L900 1L818 2L736 2L655 1L573 2L491 0L409 1L327 1L245 2L164 2L82 0L0 1Z" fill="#efefef"></path><path d="M0 14L82 16L164 14L245 13L327 15L409 14L491 14L573 13L655 13L736 14L818 16L900 16L900 8L818 9L736 5L655 4L573 8L491 4L409 9L327 9L245 8L164 9L82 6L0 6Z" fill="#ececec"></path><path d="M0 16L82 18L164 17L245 17L327 17L409 15L491 16L573 17L655 16L736 16L818 18L900 18L900 14L818 14L736 12L655 11L573 11L491 12L409 12L327 13L245 11L164 12L82 14L0 12Z" fill="#e8e8e8"></path><path d="M0 21L82 21L164 21L245 21L327 21L409 21L491 21L573 21L655 21L736 21L818 21L900 21L900 16L818 16L736 14L655 14L573 15L491 14L409 13L327 15L245 15L164 15L82 16L0 14Z" fill="#e5e5e5"></path></svg>