<svg id="visual" viewBox="0 0 900 20" width="900" height="20" xmlns="http://www.w3.org/2000/svg" xmlns:xlink="http://www.w3.org/1999/xlink" version="1.1"><path d="M0 5L82 3L164 5L245 5L327 3L409 2L491 4L573 4L655 5L736 5L818 4L900 4L900 0L818 0L736 0L655 0L573 0L491 0L409 0L327 0L245 0L164 0L82 0L0 0Z" fill="#ffffff"></path><path d="M0 11L82 10L164 10L245 11L327 10L409 10L491 9L573 10L655 10L736 10L818 8L900 8L900 2L818 2L736 3L655 3L573 2L491 2L409 0L327 1L245 3L164 3L82 1L0 3Z" fill="#f2f2f2"></path><path d="M0 13L82 12L164 13L245 13L327 12L409 12L491 11L573 14L655 12L736 11L818 11L900 11L900 6L818 6L736 8L655 8L573 8L491 7L409 8L327 8L245 9L164 8L82 8L0 9Z" fill="#e5e5e5"></path><path d="M0 19L82 16L164 17L245 18L327 15L409 18L491 16L573 16L655 18L736 18L818 19L900 17L900 9L818 9L736 9L655 10L573 12L491 9L409 10L327 10L245 11L164 11L82 10L0 11Z" fill="#d8d8d8"></path><path d="M0 21L82 21L164 21L245 21L327 21L409 21L491 21L573 21L655 21L736 21L818 21L900 21L900 15L818 17L736 16L655 16L573 14L491 14L409 16L327 13L245 16L164 15L82 14L0 17Z" fill="#cccccc"></path></svg>